<mxfile host="65bd71144e">
    <diagram id="J6fjJ9Th5JzzQ6nlgzsV" name="Page-1">
        <mxGraphModel dx="1130" dy="779" grid="1" gridSize="10" guides="1" tooltips="1" connect="1" arrows="1" fold="1" page="1" pageScale="1" pageWidth="827" pageHeight="1169" math="0" shadow="0">
            <root>
                <mxCell id="0"/>
                <mxCell id="1" parent="0"/>
                <mxCell id="4" value="" style="strokeWidth=1;shadow=0;dashed=0;align=center;html=1;shape=mxgraph.mockup.containers.browserWindow;rSize=0;strokeColor=#666666;strokeColor2=#008cff;strokeColor3=#c4c4c4;mainText=,;recursiveResize=0;" vertex="1" parent="1">
                    <mxGeometry x="9" y="10" width="810" height="520" as="geometry"/>
                </mxCell>
                <mxCell id="5" value="Rooks Realm" style="strokeWidth=1;shadow=0;dashed=0;align=center;html=1;shape=mxgraph.mockup.containers.anchor;fontSize=17;fontColor=#666666;align=left;" vertex="1" parent="4">
                    <mxGeometry x="60" y="12" width="110" height="26" as="geometry"/>
                </mxCell>
                <mxCell id="6" value="https://chess.mcharg.uk/play/{ID}" style="strokeWidth=1;shadow=0;dashed=0;align=center;html=1;shape=mxgraph.mockup.containers.anchor;rSize=0;fontSize=17;fontColor=#666666;align=left;" vertex="1" parent="4">
                    <mxGeometry x="130" y="60" width="250" height="26" as="geometry"/>
                </mxCell>
                <mxCell id="7" value="" style="strokeWidth=1;shadow=0;dashed=0;align=center;html=1;shape=mxgraph.mockup.rrect;rSize=10;strokeColor=#666666;" vertex="1" parent="4">
                    <mxGeometry y="110" width="120" height="410" as="geometry"/>
                </mxCell>
                <mxCell id="8" value="Messages" style="strokeColor=inherit;fillColor=inherit;gradientColor=inherit;strokeWidth=1;shadow=0;dashed=0;align=center;html=1;shape=mxgraph.mockup.rrect;rSize=0;fontSize=17;fontColor=#666666;fontStyle=1;resizeWidth=1;" vertex="1" parent="7">
                    <mxGeometry width="120" height="50" relative="1" as="geometry">
                        <mxPoint y="50" as="offset"/>
                    </mxGeometry>
                </mxCell>
                <mxCell id="9" value="Statistics" style="strokeColor=inherit;fillColor=inherit;gradientColor=inherit;strokeWidth=1;shadow=0;dashed=0;align=center;html=1;shape=mxgraph.mockup.rrect;rSize=0;fontSize=17;fontColor=#666666;fontStyle=1;resizeWidth=1;" vertex="1" parent="7">
                    <mxGeometry width="120" height="50" relative="1" as="geometry">
                        <mxPoint y="100" as="offset"/>
                    </mxGeometry>
                </mxCell>
                <mxCell id="10" value="Play" style="strokeWidth=1;shadow=0;dashed=0;align=center;html=1;shape=mxgraph.mockup.topButton;rSize=10;fontSize=17;fontColor=#666666;fontStyle=1;fillColor=none;strokeColor=#008cff;resizeWidth=1;" vertex="1" parent="7">
                    <mxGeometry width="120" height="50" relative="1" as="geometry"/>
                </mxCell>
                <mxCell id="11" value="Account" style="strokeColor=inherit;fillColor=inherit;gradientColor=inherit;strokeWidth=1;shadow=0;dashed=0;align=center;html=1;shape=mxgraph.mockup.rrect;rSize=0;fontSize=17;fontColor=#666666;fontStyle=1;resizeWidth=1;" vertex="1" parent="7">
                    <mxGeometry y="150" width="120" height="50" as="geometry"/>
                </mxCell>
                <mxCell id="12" value="Logout" style="strokeColor=inherit;fillColor=inherit;gradientColor=inherit;strokeWidth=1;shadow=0;dashed=0;align=center;html=1;shape=mxgraph.mockup.rrect;rSize=0;fontSize=17;fontColor=#666666;fontStyle=1;resizeWidth=1;" vertex="1" parent="7">
                    <mxGeometry y="200" width="120" height="50" as="geometry"/>
                </mxCell>
                <mxCell id="22" value="&lt;font style=&quot;font-size: 18px;&quot;&gt;Play Game! (ID: {ID HERE})&lt;/font&gt;" style="text;html=1;align=center;verticalAlign=middle;resizable=0;points=[];autosize=1;strokeColor=none;fillColor=none;" vertex="1" parent="4">
                    <mxGeometry x="120" y="110" width="250" height="40" as="geometry"/>
                </mxCell>
                <mxCell id="23" value="" style="verticalLabelPosition=bottom;shadow=0;dashed=0;align=center;html=1;verticalAlign=top;strokeWidth=1;shape=mxgraph.mockup.graphics.simpleIcon;strokeColor=#999999;fontSize=18;" vertex="1" parent="4">
                    <mxGeometry x="130" y="150" width="360" height="360" as="geometry"/>
                </mxCell>
                <mxCell id="24" value="Chess Board" style="text;html=1;align=center;verticalAlign=middle;resizable=0;points=[];autosize=1;strokeColor=none;fillColor=none;fontSize=18;" vertex="1" parent="4">
                    <mxGeometry x="245" y="460" width="130" height="40" as="geometry"/>
                </mxCell>
                <mxCell id="25" value="" style="shape=mxgraph.mockup.containers.marginRect;rectMarginTop=10;strokeColor=#666666;strokeWidth=1;dashed=0;rounded=1;arcSize=5;recursiveResize=0;fontSize=18;" vertex="1" parent="4">
                    <mxGeometry x="501" y="140" width="289" height="290" as="geometry"/>
                </mxCell>
                <mxCell id="28" value="&lt;font style=&quot;font-size: 15px;&quot;&gt;Opponent Username&lt;/font&gt;" style="rounded=1;whiteSpace=wrap;html=1;fontSize=15;" vertex="1" parent="4">
                    <mxGeometry x="511" y="160" width="170" height="40" as="geometry"/>
                </mxCell>
                <mxCell id="43" value="&lt;font style=&quot;font-size: 15px;&quot;&gt;10:00&lt;/font&gt;" style="rounded=1;whiteSpace=wrap;html=1;fontSize=15;" vertex="1" parent="4">
                    <mxGeometry x="731" y="160" width="51" height="40" as="geometry"/>
                </mxCell>
                <mxCell id="44" value="&lt;font style=&quot;font-size: 15px;&quot;&gt;Resign&lt;/font&gt;" style="rounded=1;whiteSpace=wrap;html=1;fontSize=15;" vertex="1" parent="4">
                    <mxGeometry x="511" y="240" width="69" height="40" as="geometry"/>
                </mxCell>
                <mxCell id="45" value="&lt;font style=&quot;font-size: 15px;&quot;&gt;Draw&lt;/font&gt;" style="rounded=1;whiteSpace=wrap;html=1;fontSize=15;" vertex="1" parent="4">
                    <mxGeometry x="612" y="240" width="69" height="40" as="geometry"/>
                </mxCell>
                <mxCell id="46" value="&lt;font style=&quot;font-size: 15px;&quot;&gt;Pause&lt;/font&gt;" style="rounded=1;whiteSpace=wrap;html=1;fontSize=15;" vertex="1" parent="4">
                    <mxGeometry x="713" y="240" width="69" height="40" as="geometry"/>
                </mxCell>
                <mxCell id="47" value="&lt;font style=&quot;font-size: 15px;&quot;&gt;Your Username&lt;/font&gt;" style="rounded=1;whiteSpace=wrap;html=1;fontSize=15;" vertex="1" parent="4">
                    <mxGeometry x="511" y="330" width="170" height="40" as="geometry"/>
                </mxCell>
                <mxCell id="48" value="&lt;font style=&quot;font-size: 15px;&quot;&gt;10:00&lt;/font&gt;" style="rounded=1;whiteSpace=wrap;html=1;fontSize=15;" vertex="1" parent="4">
                    <mxGeometry x="731" y="330" width="51" height="40" as="geometry"/>
                </mxCell>
                <mxCell id="49" value="Suggested Move!" style="strokeWidth=1;shadow=0;dashed=0;align=center;html=1;shape=mxgraph.mockup.buttons.button;strokeColor=#666666;fontColor=#ffffff;mainText=;buttonStyle=round;fontSize=17;fontStyle=1;fillColor=#008cff;whiteSpace=wrap;" vertex="1" parent="4">
                    <mxGeometry x="511" y="390" width="269" height="35" as="geometry"/>
                </mxCell>
            </root>
        </mxGraphModel>
    </diagram>
</mxfile>